<?xml version="1.0" standalone="no"?><!DOCTYPE svg PUBLIC "-//W3C//DTD SVG 1.1//EN" "http://www.w3.org/Graphics/SVG/1.1/DTD/svg11.dtd"><svg t="1594733257390" class="icon" viewBox="0 0 1541 1024" version="1.1" xmlns="http://www.w3.org/2000/svg" p-id="2183" xmlns:xlink="http://www.w3.org/1999/xlink" width="300.9765625" height="200"><defs><style type="text/css"></style></defs><path d="M621.879503 977.461201h530.497255c10.169276 0 18.408274 8.144837 18.408273 18.208183v10.122197c0 10.051576-8.238997 18.208184-18.408273 18.208184H269.285736a18.314114 18.314114 0 0 1-18.408274-18.208184v-10.122197c0-10.063346 8.238997-18.208184 18.408274-18.208183h126.492146l-201.50233-743.51064a51.175942 51.175942 0 0 1 5.225878-39.217627 52.176392 52.176392 0 0 1 31.731909-24.069641L868.719857 1.775622c27.89489-7.391557 56.54306 8.968737 64.028777 36.534067l143.42917 529.226095c105.929963 7.650497 189.473394 95.078027 189.473394 201.79658 0 111.767881-91.594108 202.361539-204.597839 202.361539a205.033328 205.033328 0 0 1-154.481196-69.678376l-284.69266 75.422134zM879.501173 862.750821a199.70152 199.70152 0 0 1-23.057422-93.418457c0-101.151345 75.057264-184.965485 173.089559-199.972231L895.096417 73.337197c-4.472598-16.536844-21.680332-26.364791-38.405496-21.927503L266.743417 207.6917c-16.725164 4.437288-26.659041 21.433163-22.186442 37.981776L435.019048 948.412851c4.472598 16.536844 21.680332 26.364791 38.405497 21.927502l406.064858-107.577762z m181.552186 68.501376c90.393568 0 163.685333-72.491405 163.685333-161.896293 0-89.416659-73.279994-161.908063-163.685333-161.908064S897.368027 679.962785 897.368027 769.367674c0 89.404889 73.279994 161.908063 163.685332 161.908063z m-668.465146-651.940072l277.665973-73.538935a20.938823 20.938823 0 0 1 25.576201 14.618335l1.35355 4.990478a20.644573 20.644573 0 0 1-14.783115 25.305492l-277.665973 73.562474a20.938823 20.938823 0 0 1-25.576201-14.618335l-1.35355-4.990478a20.656343 20.656343 0 0 1 14.783115-25.329031z m838.400347 698.113766h292.460858c10.181046 0 18.420044 8.156607 18.420044 18.208184v10.122196c0 10.051576-8.238997 18.208184-18.420044 18.208184h-292.460858a18.314114 18.314114 0 0 1-18.420043-18.208184v-10.122196c0-10.051576 8.238997-18.208184 18.420043-18.208184zM425.061632 399.130683l383.631246-101.657455a20.938823 20.938823 0 0 1 25.576201 14.618335l1.353549 4.990478a20.644573 20.644573 0 0 1-14.783115 25.305492l-383.631246 101.645684a20.938823 20.938823 0 0 1-25.576201-14.618335l-1.353549-4.990478a20.456253 20.456253 0 0 1 2.095059-15.677635 20.856433 20.856433 0 0 1 12.688056-9.616086z m32.461648 119.795018l171.65362-45.467494a20.938823 20.938823 0 0 1 25.576201 14.618335l1.35355 4.990478a20.644573 20.644573 0 0 1-14.783115 25.293721l-171.65362 45.526344a20.938823 20.938823 0 0 1-25.576201-14.618335l-1.35355-5.002248a20.479793 20.479793 0 0 1 2.08329-15.701174 20.868203 20.868203 0 0 1 12.699825-9.651397zM18.420044 977.461201h161.813903c10.169276 0 18.420044 8.144837 18.420044 18.208183v10.122197c0 10.051576-8.238997 18.208184-18.420044 18.208184H18.420044A18.314114 18.314114 0 0 1 0 1005.791581v-10.122197c0-10.063346 8.238997-18.208184 18.420044-18.208183z m1065.149318-119.936258c-11.052026 2.942499-22.410072-3.389759-25.305492-14.100455-2.907189-10.734236 3.684009-21.809802 14.771345-24.740532 11.063796-2.942499 22.410072 3.389759 25.305491 14.112225 2.918959 10.710696-3.684009 21.798032-14.771344 24.740532z m24.046101-124.173457c-2.271609 7.144388-8.356697 17.666764-18.302343 31.590669-5.155258 7.179697-8.085987 12.676286-8.768647 16.430914-0.7062 3.731089 0.16478 9.863257 2.624709 18.361194l-28.54224 7.579877c-1.15346-4.037109-1.883199-6.497038-2.1186-7.391557-2.483469-9.133517-2.989579-17.054724-1.530099-23.751852 1.459479-6.708898 5.790838-14.983205 12.946995-24.752301 7.144388-9.816177 11.334506-16.089584 12.499736-18.831994a20.008993 20.008993 0 0 0 0.91806-13.029385c-1.636029-6.014468-5.484818-10.522376-11.534596-13.559035-6.038008-3.001349-13.241245-3.413299-21.515553-1.21231-8.003597 2.118599-14.065145 6.143938-18.231723 12.040706-4.154809 5.908538-6.096858 17.007644-5.531898 23.422292 0.52965 6.038008-26.929751 15.936574-29.75455 4.143038-2.836569-11.805306-0.1177-26.129391 7.932977-38.123016 8.062447-12.005396 20.679883-20.267933 37.816997-24.811152 18.055174-4.790388 33.662188-3.931179 46.856354 2.577629 13.205935 6.497038 21.456703 15.924804 24.811151 28.30684 1.883199 6.908988 1.671339 14.206385-0.57673 21.009443z" p-id="2184"></path></svg>