<?xml version="1.0" standalone="no"?><!DOCTYPE svg PUBLIC "-//W3C//DTD SVG 1.1//EN" "http://www.w3.org/Graphics/SVG/1.1/DTD/svg11.dtd"><svg t="1594556450893" class="icon" viewBox="0 0 1024 1024" version="1.1" xmlns="http://www.w3.org/2000/svg" p-id="825" xmlns:xlink="http://www.w3.org/1999/xlink" width="200" height="200"><defs><style type="text/css"></style></defs><path d="M432.05 226.18999999l-57.96 59.96600001c-7.992 5.998-11.983 13.989-11.983 23.978 0 11.993 3.99 19.995 11.984 25.99L547.98 512l-173.89 175.886c-7.992 5.986-11.98299999 13.988-11.983 25.982 0 9.98699999 3.99 17.98 11.984 23.976l57.959 59.965c5.997 5.997 15.995 9.98800001 25.99200001 9.988 9.98699999 0 17.98-3.991 23.97599999-9.988L741.846 537.982c15.984-15.984 15.984-35.98 0-51.964L482.02 226.19100001c-5.996-5.996-13.989-9.988-23.976-9.98800001-9.998 0-19.995 3.992-25.99299999 9.988z m-299.787 65.96400001c39.97-65.963 93.928-119.922 159.891-159.892 63.957-37.976 137.901-57.96 219.848-57.96 81.946 0 155.889 19.983 219.846 57.96000001 65.962 39.96999999 119.92 93.929 159.891 159.89199999C929.714 356.11 949.7 430.05399999 949.70000001 512s-19.985 155.89-57.96000001 219.847c-39.96999999 65.962-93.93 119.921-159.891 159.892-63.957 37.975-137.901 57.96-219.846 57.96-81.947 0-155.89-19.985-219.848-57.96-65.963-39.97-119.922-93.93-159.891-159.892-37.976-63.957-57.961-137.9-57.96100001-219.847 0-81.94499999 19.985-155.89 57.96000001-219.846z" p-id="826"></path></svg>